<mxfile host="app.diagrams.net" modified="2021-09-29T09:13:18.030Z" agent="5.0 (Windows NT 10.0; Win64; x64) AppleWebKit/537.36 (KHTML, like Gecko) Chrome/93.0.4577.82 Safari/537.36" etag="OB2W0OXHkHCjz8YzutIG" version="15.3.4" type="github">
  <diagram name="Page-1" id="d66fe2ae-3e9f-cf2f-6d29-e24063ad5d60">
    <mxGraphModel dx="5044" dy="1524" grid="1" gridSize="10" guides="1" tooltips="1" connect="1" arrows="1" fold="1" page="1" pageScale="1" pageWidth="1100" pageHeight="850" background="none" math="0" shadow="0">
      <root>
        <mxCell id="0" />
        <mxCell id="1" parent="0" />
        <mxCell id="MTNxBW16Kox85wlTmC5S-1" value="ISP_1" style="fontColor=#0066CC;verticalAlign=top;verticalLabelPosition=bottom;labelPosition=center;align=center;html=1;fillColor=#CCCCCC;strokeColor=#6881B3;gradientColor=none;gradientDirection=north;strokeWidth=2;shape=mxgraph.networks.server;rounded=1;shadow=0;comic=0;labelBackgroundColor=#ffffff;" vertex="1" parent="1">
          <mxGeometry x="-1660" y="710" width="90" height="100" as="geometry" />
        </mxCell>
        <mxCell id="MTNxBW16Kox85wlTmC5S-2" style="edgeStyle=none;html=1;labelBackgroundColor=none;endArrow=none;strokeWidth=2;fontFamily=Verdana;fontSize=28;fontColor=#0066CC;rounded=0;strokeColor=#6881B3;" edge="1" parent="1" source="MTNxBW16Kox85wlTmC5S-3" target="MTNxBW16Kox85wlTmC5S-21">
          <mxGeometry relative="1" as="geometry">
            <mxPoint x="-1930" y="754" as="targetPoint" />
          </mxGeometry>
        </mxCell>
        <mxCell id="MTNxBW16Kox85wlTmC5S-3" value="Core-router" style="fontColor=#0066CC;verticalAlign=top;verticalLabelPosition=bottom;labelPosition=center;align=center;html=1;fillColor=#CCCCCC;strokeColor=#6881B3;gradientColor=none;gradientDirection=north;strokeWidth=2;shape=mxgraph.networks.router;rounded=1;shadow=0;comic=0;labelBackgroundColor=#ffffff;" vertex="1" parent="1">
          <mxGeometry x="-1700" y="460" width="100" height="30" as="geometry" />
        </mxCell>
        <mxCell id="MTNxBW16Kox85wlTmC5S-4" style="edgeStyle=none;html=1;labelBackgroundColor=none;endArrow=none;strokeWidth=2;fontFamily=Verdana;fontSize=28;fontColor=#0066CC;rounded=0;strokeColor=#6881B3;" edge="1" parent="1" source="MTNxBW16Kox85wlTmC5S-11" target="MTNxBW16Kox85wlTmC5S-12">
          <mxGeometry relative="1" as="geometry" />
        </mxCell>
        <mxCell id="MTNxBW16Kox85wlTmC5S-5" style="edgeStyle=none;html=1;labelBackgroundColor=none;endArrow=none;strokeWidth=2;fontFamily=Verdana;fontSize=28;fontColor=#0066CC;rounded=0;strokeColor=#6881B3;" edge="1" parent="1" source="MTNxBW16Kox85wlTmC5S-11" target="MTNxBW16Kox85wlTmC5S-13">
          <mxGeometry relative="1" as="geometry" />
        </mxCell>
        <mxCell id="MTNxBW16Kox85wlTmC5S-9" style="edgeStyle=none;html=1;labelBackgroundColor=none;endArrow=none;strokeWidth=2;fontFamily=Verdana;fontSize=28;fontColor=#0066CC;rounded=0;strokeColor=#6881B3;" edge="1" parent="1" source="MTNxBW16Kox85wlTmC5S-11" target="MTNxBW16Kox85wlTmC5S-15">
          <mxGeometry relative="1" as="geometry" />
        </mxCell>
        <mxCell id="MTNxBW16Kox85wlTmC5S-10" style="edgeStyle=none;html=1;labelBackgroundColor=none;endArrow=none;strokeWidth=2;fontFamily=Verdana;fontSize=28;fontColor=#0066CC;rounded=0;strokeColor=#6881B3;" edge="1" parent="1" source="MTNxBW16Kox85wlTmC5S-11" target="MTNxBW16Kox85wlTmC5S-3">
          <mxGeometry relative="1" as="geometry" />
        </mxCell>
        <mxCell id="MTNxBW16Kox85wlTmC5S-11" value="switch_1" style="fontColor=#0066CC;verticalAlign=top;verticalLabelPosition=bottom;labelPosition=center;align=center;html=1;fillColor=#CCCCCC;strokeColor=#6881B3;gradientColor=none;gradientDirection=north;strokeWidth=2;shape=mxgraph.networks.switch;rounded=1;shadow=0;comic=0;labelBackgroundColor=#ffffff;" vertex="1" parent="1">
          <mxGeometry x="-1950" y="390" width="100" height="30" as="geometry" />
        </mxCell>
        <mxCell id="MTNxBW16Kox85wlTmC5S-12" value="Vlan-Depart 102" style="fontColor=#0066CC;verticalAlign=top;verticalLabelPosition=bottom;labelPosition=center;align=center;html=1;fillColor=#CCCCCC;strokeColor=#6881B3;gradientColor=none;gradientDirection=north;strokeWidth=2;shape=mxgraph.networks.pc;rounded=1;shadow=0;comic=0;labelBackgroundColor=#ffffff;" vertex="1" parent="1">
          <mxGeometry x="-1785" y="160" width="100" height="70" as="geometry" />
        </mxCell>
        <mxCell id="MTNxBW16Kox85wlTmC5S-13" value="Vlan-Depart 103" style="fontColor=#0066CC;verticalAlign=top;verticalLabelPosition=bottom;labelPosition=center;align=center;html=1;fillColor=#CCCCCC;strokeColor=#6881B3;gradientColor=none;gradientDirection=north;strokeWidth=2;shape=mxgraph.networks.pc;rounded=1;shadow=0;comic=0;labelBackgroundColor=#ffffff;" vertex="1" parent="1">
          <mxGeometry x="-1775" y="260" width="100" height="70" as="geometry" />
        </mxCell>
        <mxCell id="MTNxBW16Kox85wlTmC5S-15" value="Vlan-Depart 101" style="fontColor=#0066CC;verticalAlign=top;verticalLabelPosition=bottom;labelPosition=center;align=center;html=1;fillColor=#CCCCCC;strokeColor=#6881B3;gradientColor=none;gradientDirection=north;strokeWidth=2;shape=mxgraph.networks.pc;rounded=1;shadow=0;comic=0;labelBackgroundColor=#ffffff;" vertex="1" parent="1">
          <mxGeometry x="-1805" y="50" width="100" height="70" as="geometry" />
        </mxCell>
        <mxCell id="MTNxBW16Kox85wlTmC5S-18" style="edgeStyle=none;html=1;labelBackgroundColor=none;endArrow=none;strokeWidth=2;fontFamily=Verdana;fontSize=28;fontColor=#0066CC;rounded=0;strokeColor=#6881B3;" edge="1" parent="1" source="MTNxBW16Kox85wlTmC5S-19" target="MTNxBW16Kox85wlTmC5S-11">
          <mxGeometry relative="1" as="geometry" />
        </mxCell>
        <mxCell id="MTNxBW16Kox85wlTmC5S-19" value="printers-vlan" style="fontColor=#0066CC;verticalAlign=top;verticalLabelPosition=bottom;labelPosition=center;align=center;html=1;fillColor=#CCCCCC;strokeColor=#6881B3;gradientColor=none;gradientDirection=north;strokeWidth=2;shape=mxgraph.networks.printer;rounded=1;shadow=0;comic=0;labelBackgroundColor=#ffffff;" vertex="1" parent="1">
          <mxGeometry x="-2150" y="150" width="100" height="100" as="geometry" />
        </mxCell>
        <mxCell id="MTNxBW16Kox85wlTmC5S-20" style="edgeStyle=none;html=1;labelBackgroundColor=none;endArrow=none;strokeWidth=2;fontFamily=Verdana;fontSize=28;fontColor=#0066CC;rounded=0;strokeColor=#6881B3;" edge="1" parent="1" source="MTNxBW16Kox85wlTmC5S-21" target="MTNxBW16Kox85wlTmC5S-1">
          <mxGeometry relative="1" as="geometry" />
        </mxCell>
        <mxCell id="MTNxBW16Kox85wlTmC5S-21" value="firewall" style="fontColor=#0066CC;verticalAlign=top;verticalLabelPosition=bottom;labelPosition=center;align=center;html=1;fillColor=#CCCCCC;strokeColor=#6881B3;gradientColor=none;gradientDirection=north;strokeWidth=2;shape=mxgraph.networks.firewall;rounded=1;shadow=0;comic=0;labelBackgroundColor=#ffffff;" vertex="1" parent="1">
          <mxGeometry x="-1890" y="584" width="100" height="100" as="geometry" />
        </mxCell>
        <mxCell id="MTNxBW16Kox85wlTmC5S-22" value="ISP_2" style="fontColor=#0066CC;verticalAlign=top;verticalLabelPosition=bottom;labelPosition=center;align=center;html=1;fillColor=#CCCCCC;strokeColor=#6881B3;gradientColor=none;gradientDirection=north;strokeWidth=2;shape=mxgraph.networks.server;rounded=1;shadow=0;comic=0;labelBackgroundColor=#ffffff;" vertex="1" parent="1">
          <mxGeometry x="-1670" y="580" width="90" height="100" as="geometry" />
        </mxCell>
        <mxCell id="MTNxBW16Kox85wlTmC5S-29" style="edgeStyle=none;html=1;labelBackgroundColor=none;endArrow=none;strokeWidth=2;fontFamily=Verdana;fontSize=28;fontColor=#0066CC;rounded=0;strokeColor=#6881B3;entryX=-0.011;entryY=0.64;entryDx=0;entryDy=0;entryPerimeter=0;exitX=1;exitY=0.5;exitDx=0;exitDy=0;exitPerimeter=0;" edge="1" parent="1" source="MTNxBW16Kox85wlTmC5S-21" target="MTNxBW16Kox85wlTmC5S-22">
          <mxGeometry relative="1" as="geometry">
            <mxPoint x="-1808.0092592592591" y="694" as="sourcePoint" />
            <mxPoint x="-1756.9907407407406" y="810" as="targetPoint" />
          </mxGeometry>
        </mxCell>
        <mxCell id="MTNxBW16Kox85wlTmC5S-32" value="switch_2" style="fontColor=#0066CC;verticalAlign=top;verticalLabelPosition=bottom;labelPosition=center;align=center;html=1;fillColor=#CCCCCC;strokeColor=#6881B3;gradientColor=none;gradientDirection=north;strokeWidth=2;shape=mxgraph.networks.switch;rounded=1;shadow=0;comic=0;labelBackgroundColor=#ffffff;" vertex="1" parent="1">
          <mxGeometry x="-1500" y="390" width="100" height="30" as="geometry" />
        </mxCell>
        <mxCell id="MTNxBW16Kox85wlTmC5S-33" style="edgeStyle=none;html=1;labelBackgroundColor=none;endArrow=none;strokeWidth=2;fontFamily=Verdana;fontSize=28;fontColor=#0066CC;rounded=0;strokeColor=#6881B3;exitX=0.43;exitY=0.867;exitDx=0;exitDy=0;exitPerimeter=0;entryX=0.95;entryY=0.05;entryDx=0;entryDy=0;entryPerimeter=0;" edge="1" parent="1" source="MTNxBW16Kox85wlTmC5S-32" target="MTNxBW16Kox85wlTmC5S-3">
          <mxGeometry relative="1" as="geometry">
            <mxPoint x="-1900.2272727272727" y="430" as="sourcePoint" />
            <mxPoint x="-2029.7727272727273" y="620" as="targetPoint" />
          </mxGeometry>
        </mxCell>
        <mxCell id="MTNxBW16Kox85wlTmC5S-35" value="printers-vlan" style="fontColor=#0066CC;verticalAlign=top;verticalLabelPosition=bottom;labelPosition=center;align=center;html=1;fillColor=#CCCCCC;strokeColor=#6881B3;gradientColor=none;gradientDirection=north;strokeWidth=2;shape=mxgraph.networks.printer;rounded=1;shadow=0;comic=0;labelBackgroundColor=#ffffff;" vertex="1" parent="1">
          <mxGeometry x="-1290" y="150" width="100" height="100" as="geometry" />
        </mxCell>
        <mxCell id="MTNxBW16Kox85wlTmC5S-36" value="Phone-vlan" style="fontColor=#0066CC;verticalAlign=top;verticalLabelPosition=bottom;labelPosition=center;align=center;html=1;outlineConnect=0;fillColor=#CCCCCC;strokeColor=#6881B3;gradientColor=none;gradientDirection=north;strokeWidth=2;shape=mxgraph.networks.phone_1;hachureGap=4;pointerEvents=0;" vertex="1" parent="1">
          <mxGeometry x="-1320" y="360" width="100" height="70" as="geometry" />
        </mxCell>
        <mxCell id="MTNxBW16Kox85wlTmC5S-37" value="Phone-vlan" style="fontColor=#0066CC;verticalAlign=top;verticalLabelPosition=bottom;labelPosition=center;align=center;html=1;outlineConnect=0;fillColor=#CCCCCC;strokeColor=#6881B3;gradientColor=none;gradientDirection=north;strokeWidth=2;shape=mxgraph.networks.phone_1;hachureGap=4;pointerEvents=0;" vertex="1" parent="1">
          <mxGeometry x="-2150" y="360" width="100" height="70" as="geometry" />
        </mxCell>
        <mxCell id="MTNxBW16Kox85wlTmC5S-38" value="Vlan-Depart 102" style="fontColor=#0066CC;verticalAlign=top;verticalLabelPosition=bottom;labelPosition=center;align=center;html=1;fillColor=#CCCCCC;strokeColor=#6881B3;gradientColor=none;gradientDirection=north;strokeWidth=2;shape=mxgraph.networks.pc;rounded=1;shadow=0;comic=0;labelBackgroundColor=#ffffff;" vertex="1" parent="1">
          <mxGeometry x="-1600" y="160" width="100" height="70" as="geometry" />
        </mxCell>
        <mxCell id="MTNxBW16Kox85wlTmC5S-39" value="Vlan-Depart 103" style="fontColor=#0066CC;verticalAlign=top;verticalLabelPosition=bottom;labelPosition=center;align=center;html=1;fillColor=#CCCCCC;strokeColor=#6881B3;gradientColor=none;gradientDirection=north;strokeWidth=2;shape=mxgraph.networks.pc;rounded=1;shadow=0;comic=0;labelBackgroundColor=#ffffff;" vertex="1" parent="1">
          <mxGeometry x="-1610" y="260" width="100" height="70" as="geometry" />
        </mxCell>
        <mxCell id="MTNxBW16Kox85wlTmC5S-40" value="Vlan-Depart 101" style="fontColor=#0066CC;verticalAlign=top;verticalLabelPosition=bottom;labelPosition=center;align=center;html=1;fillColor=#CCCCCC;strokeColor=#6881B3;gradientColor=none;gradientDirection=north;strokeWidth=2;shape=mxgraph.networks.pc;rounded=1;shadow=0;comic=0;labelBackgroundColor=#ffffff;" vertex="1" parent="1">
          <mxGeometry x="-1590" y="50" width="100" height="70" as="geometry" />
        </mxCell>
        <mxCell id="MTNxBW16Kox85wlTmC5S-41" style="edgeStyle=none;html=1;labelBackgroundColor=none;endArrow=none;strokeWidth=2;fontFamily=Verdana;fontSize=28;fontColor=#0066CC;rounded=0;strokeColor=#6881B3;entryX=0.95;entryY=1;entryDx=0;entryDy=0;entryPerimeter=0;exitX=0.433;exitY=-0.02;exitDx=0;exitDy=0;exitPerimeter=0;" edge="1" parent="1" source="MTNxBW16Kox85wlTmC5S-32" target="MTNxBW16Kox85wlTmC5S-39">
          <mxGeometry relative="1" as="geometry">
            <mxPoint x="-1450" y="390" as="sourcePoint" />
            <mxPoint x="-1765" y="336.42857142857133" as="targetPoint" />
          </mxGeometry>
        </mxCell>
        <mxCell id="MTNxBW16Kox85wlTmC5S-42" style="edgeStyle=none;html=1;labelBackgroundColor=none;endArrow=none;strokeWidth=2;fontFamily=Verdana;fontSize=28;fontColor=#0066CC;rounded=0;strokeColor=#6881B3;entryX=0.95;entryY=1;entryDx=0;entryDy=0;entryPerimeter=0;" edge="1" parent="1" target="MTNxBW16Kox85wlTmC5S-38">
          <mxGeometry relative="1" as="geometry">
            <mxPoint x="-1453" y="390" as="sourcePoint" />
            <mxPoint x="-1505" y="340" as="targetPoint" />
          </mxGeometry>
        </mxCell>
        <mxCell id="MTNxBW16Kox85wlTmC5S-43" style="edgeStyle=none;html=1;labelBackgroundColor=none;endArrow=none;strokeWidth=2;fontFamily=Verdana;fontSize=28;fontColor=#0066CC;rounded=0;strokeColor=#6881B3;entryX=0.95;entryY=1;entryDx=0;entryDy=0;entryPerimeter=0;" edge="1" parent="1" target="MTNxBW16Kox85wlTmC5S-40">
          <mxGeometry relative="1" as="geometry">
            <mxPoint x="-1450" y="390" as="sourcePoint" />
            <mxPoint x="-1495" y="240" as="targetPoint" />
          </mxGeometry>
        </mxCell>
        <mxCell id="MTNxBW16Kox85wlTmC5S-44" style="edgeStyle=none;html=1;labelBackgroundColor=none;endArrow=none;strokeWidth=2;fontFamily=Verdana;fontSize=28;fontColor=#0066CC;rounded=0;strokeColor=#6881B3;entryX=0.95;entryY=0.05;entryDx=0;entryDy=0;entryPerimeter=0;exitX=0.1;exitY=1;exitDx=0;exitDy=0;exitPerimeter=0;" edge="1" parent="1" source="MTNxBW16Kox85wlTmC5S-35" target="MTNxBW16Kox85wlTmC5S-32">
          <mxGeometry relative="1" as="geometry">
            <mxPoint x="-2150" y="251.45161290322585" as="sourcePoint" />
            <mxPoint x="-1913.8461538461538" y="400" as="targetPoint" />
          </mxGeometry>
        </mxCell>
        <mxCell id="MTNxBW16Kox85wlTmC5S-45" style="edgeStyle=none;html=1;labelBackgroundColor=none;endArrow=none;strokeWidth=2;fontFamily=Verdana;fontSize=28;fontColor=#0066CC;rounded=0;strokeColor=#6881B3;exitX=0.9;exitY=0.68;exitDx=0;exitDy=0;exitPerimeter=0;entryX=0;entryY=0.5;entryDx=0;entryDy=0;entryPerimeter=0;" edge="1" parent="1" source="MTNxBW16Kox85wlTmC5S-37" target="MTNxBW16Kox85wlTmC5S-11">
          <mxGeometry relative="1" as="geometry">
            <mxPoint x="-2041.219512195122" y="260" as="sourcePoint" />
            <mxPoint x="-1904.6341463414633" y="400" as="targetPoint" />
          </mxGeometry>
        </mxCell>
        <mxCell id="MTNxBW16Kox85wlTmC5S-46" style="edgeStyle=none;html=1;labelBackgroundColor=none;endArrow=none;strokeWidth=2;fontFamily=Verdana;fontSize=28;fontColor=#0066CC;rounded=0;strokeColor=#6881B3;exitX=0.9;exitY=0.68;exitDx=0;exitDy=0;exitPerimeter=0;entryX=0.1;entryY=0.68;entryDx=0;entryDy=0;entryPerimeter=0;" edge="1" parent="1" target="MTNxBW16Kox85wlTmC5S-36">
          <mxGeometry relative="1" as="geometry">
            <mxPoint x="-1400" y="406.2999999999999" as="sourcePoint" />
            <mxPoint x="-1300" y="404" as="targetPoint" />
          </mxGeometry>
        </mxCell>
      </root>
    </mxGraphModel>
  </diagram>
</mxfile>
